<svg width="155" height="266" viewBox="0 0 155 266" fill="none" xmlns="http://www.w3.org/2000/svg">
<path d="M155 173C155 212.764 120.302 245 77.5 245C34.6979 245 0 212.764 0 173C0 133.235 34.6979 101 77.5 101C120.302 101 155 133.235 155 173Z" fill="white"/>
<ellipse cx="77.5" cy="175" rx="27.5" ry="28" fill="black"/>
<rect x="59" y="224" width="37" height="42" fill="white"/>
<path d="M101.738 83.3143C100.865 86.8414 97.2986 88.9932 93.7715 88.1204C90.2444 87.2476 88.0926 83.6808 88.9654 80.1537C89.8381 76.6265 93.405 74.4748 96.9321 75.3475C100.459 76.2203 102.611 79.7871 101.738 83.3143Z" fill="white"/>
<path d="M94.9635 37.8024C95.372 41.4129 92.7762 44.6709 89.1657 45.0793C85.5552 45.4878 82.2973 42.892 81.8888 39.2815C81.4804 35.671 84.0761 32.4131 87.6866 32.0046C91.2971 31.5962 94.5551 34.192 94.9635 37.8024Z" fill="white"/>
<path d="M60.0365 37.8026C59.628 41.413 62.2238 44.671 65.8343 45.0794C69.4447 45.4879 72.7027 42.8921 73.1112 39.2816C73.5196 35.6712 70.9238 32.4132 67.3133 32.0047C63.7029 31.5963 60.4449 34.1921 60.0365 37.8026Z" fill="white"/>
<path d="M53.2617 83.3143C54.1345 86.8414 57.7013 88.9932 61.2285 88.1204C64.7556 87.2476 66.9074 83.6808 66.0346 80.1537C65.1618 76.6265 61.595 74.4748 58.0679 75.3475C54.5407 76.2203 52.389 79.7871 53.2617 83.3143Z" fill="white"/>
<path d="M84.0663 4.4265C86.3932 7.97579 85.4023 12.7394 81.853 15.0663C78.3037 17.3932 73.5401 16.4022 71.2132 12.853C68.8863 9.30367 69.8772 4.54009 73.4265 2.21319C76.9758 -0.113714 81.7394 0.877223 84.0663 4.4265Z" fill="white"/>
<path d="M51.6565 119.642L94.0329 81.1215M64.556 82.634L86.7521 39.77M91.1 82.5222L68.444 38.7701M103.343 119.642L60.9671 81.1215M78.1401 13.369L78.1401 80.2598M101.738 83.3143C100.865 86.8414 97.2986 88.9932 93.7715 88.1204C90.2444 87.2476 88.0926 83.6808 88.9654 80.1537C89.8381 76.6265 93.405 74.4748 96.9321 75.3475C100.459 76.2203 102.611 79.7871 101.738 83.3143ZM94.9635 37.8024C95.372 41.4129 92.7762 44.6709 89.1657 45.0793C85.5552 45.4878 82.2973 42.892 81.8888 39.2815C81.4804 35.671 84.0761 32.4131 87.6866 32.0046C91.2971 31.5962 94.5551 34.192 94.9635 37.8024ZM60.0365 37.8026C59.628 41.413 62.2238 44.671 65.8343 45.0794C69.4447 45.4879 72.7027 42.8921 73.1112 39.2816C73.5196 35.6712 70.9238 32.4132 67.3133 32.0047C63.7029 31.5963 60.4449 34.1921 60.0365 37.8026ZM53.2617 83.3143C54.1345 86.8414 57.7013 88.9932 61.2285 88.1204C64.7556 87.2476 66.9074 83.6808 66.0346 80.1537C65.1618 76.6265 61.595 74.4748 58.0679 75.3475C54.5407 76.2203 52.389 79.7871 53.2617 83.3143ZM84.0663 4.4265C86.3932 7.97579 85.4023 12.7394 81.853 15.0663C78.3037 17.3932 73.5401 16.4022 71.2132 12.853C68.8863 9.30367 69.8772 4.54009 73.4265 2.21319C76.9758 -0.113714 81.7394 0.877223 84.0663 4.4265Z" stroke="white"/>
<circle cx="84.889" cy="182.114" r="5.13828" transform="rotate(56.7513 84.889 182.114)" fill="white"/>
<line x1="81.7268" y1="182.614" x2="37" y2="182.614" stroke="white"/>
<circle r="5.13828" transform="matrix(-0.548275 0.836298 0.836298 0.548275 69.1143 169.114)" fill="#ffb6c1"/>
<path d="M72.2766 169.614L117.003 169.614" stroke="white"/>
</svg>
