<svg width="34" height="51" viewBox="0 0 34 51" fill="none" xmlns="http://www.w3.org/2000/svg">
<g clip-path="url(#clip0_76_4)">
<path d="M33.7386 2.54345C29.8196 3.89525 25.7366 4.91031 21.7418 6.02711C18.5204 6.92589 14.036 7.19964 12.8414 10.9183C12.6089 11.6402 12.5355 12.4009 12.462 13.1567C11.9382 18.6003 11.2944 24.0244 11.5245 29.5043C11.5539 30.1899 11.5931 30.8803 11.7864 31.5392C11.9945 32.249 12.369 32.8983 12.7631 33.5282C14.7948 36.7962 16.944 38.9402 17.2402 42.9689C17.4997 46.5035 15.4141 50.0089 11.7717 50.8471C7.94089 51.729 3.59354 48.7371 3.05257 44.8537C2.96934 44.2626 2.99627 43.6618 3.05746 43.0683C3.38302 39.8705 4.75136 37.5206 6.37428 34.8509C6.91769 33.957 7.64225 32.8329 7.54924 31.7379L6.14173 13.5686C5.42207 10.8601 4.95453 8.20258 2.85919 6.25483C1.98286 5.43843 -0.638766 1.65679 0.144541 0.367981C0.452968 -0.143182 1.23383 0.0263986 1.85558 0.0263986C3.89707 0.0288212 5.94101 0.0263986 7.9825 0.0263986H25.0635C25.5506 0.0263986 33.7386 0.0263986 33.7386 0.0263986V2.54345V2.54345Z" fill="black"/>
</g>
<defs>
<clipPath id="clip0_76_4">
<rect width="33.7385" height="51" fill="white"/>
</clipPath>
</defs>
</svg>
