<svg width="20" height="149" viewBox="0 0 20 149" fill="none" xmlns="http://www.w3.org/2000/svg">
<line x1="10.25" y1="1.09278e-08" x2="10.25" y2="149" stroke="black" stroke-width="0.5"/>
<path d="M19.75 75C19.75 80.3848 15.3848 84.75 10 84.75C4.61522 84.75 0.25 80.3848 0.25 75C0.25 69.6152 4.61522 65.25 10 65.25C15.3848 65.25 19.75 69.6152 19.75 75ZM16.75 75C16.75 78.7279 13.7279 81.75 10 81.75C6.27208 81.75 3.25 78.7279 3.25 75C3.25 71.2721 6.27208 68.25 10 68.25C13.7279 68.25 16.75 71.2721 16.75 75ZM10 82.25C14.0041 82.25 17.25 79.0041 17.25 75C17.25 70.9959 14.0041 67.75 10 67.75C5.99594 67.75 2.75 70.9959 2.75 75C2.75 79.0041 5.99594 82.25 10 82.25Z" fill="white" stroke="black" stroke-width="0.5"/>
</svg>
