<svg width="92" height="43" viewBox="0 0 92 43" fill="none" xmlns="http://www.w3.org/2000/svg">
<path d="M79.2542 15.5359C79.4769 15.594 79.6919 15.6781 79.8948 15.7866C80.9934 16.5204 81.9083 17.4972 82.5686 18.6414C82.7914 19.0871 83.0978 19.5605 83.7384 19.5466C83.8784 19.5605 84.0103 19.6191 84.1144 19.7137C84.5943 20.165 85.1114 20.5749 85.6602 20.9392C86.83 21.5659 87.763 22.7635 89.3367 22.5129C89.9156 22.457 90.4985 22.457 91.0774 22.5129C91.3264 22.5639 91.566 22.6532 91.7876 22.7775C91.6762 23.0421 91.6484 23.4041 91.4534 23.5434C90.6207 24.2526 89.6176 24.7326 88.5429 24.936C87.6655 25.0474 86.7882 25.2981 85.9109 25.3816C85.0335 25.4652 84.3651 25.3816 83.5991 25.3816C82.1091 25.493 80.619 25.6462 79.1428 25.7855C79.0378 25.7971 78.9314 25.7868 78.8305 25.7553C78.7296 25.7237 78.6364 25.6717 78.5566 25.6023C78.4768 25.533 78.4122 25.4479 78.3669 25.3524C78.3216 25.2569 78.2965 25.1531 78.2933 25.0474C78.2933 24.2815 78.2933 23.5295 78.1819 22.7775C78.1983 22.2861 78.0673 21.8012 77.8059 21.3849C77.6945 21.2595 77.8059 20.981 77.8059 20.7025C77.4578 20.229 76.4133 20.2986 76.5804 19.1428C76.288 19.0035 75.9538 18.8503 75.6195 18.6693C75.2853 18.4882 74.7422 18.4186 74.7422 17.6666C74.7609 17.2312 74.6342 16.8019 74.3821 16.4464C74.13 16.0909 73.7667 15.8294 73.3496 15.703C73.2173 16.51 73.2173 17.3331 73.3496 18.1401C73.5446 18.8642 73.4471 19.672 73.5863 20.41C73.8231 21.6773 74.1434 22.9167 74.4358 24.1561C74.5751 24.7271 74.77 25.2702 74.8815 25.8412C74.9929 26.4122 75.0903 27.2338 75.2017 27.9719C75.2076 28.1431 75.2659 28.3084 75.3689 28.4454C76.1043 29.2374 76.5381 30.2626 76.5944 31.342C77.0412 32.2052 77.2931 33.156 77.3324 34.1272C77.3324 34.2386 77.4717 34.3778 77.5831 34.4614L79.7556 35.8679C79.9259 36.003 80.0401 36.1966 80.0759 36.411C80.0928 36.7137 80.208 37.0026 80.4041 37.2338C80.6001 37.4651 80.8663 37.626 81.1621 37.6922C81.6599 37.9104 82.1279 38.1912 82.5547 38.5278C83.3624 39.1127 84.1701 39.7254 84.936 40.3521C85.3121 40.6724 85.2424 41.1041 84.936 41.508C84.6629 41.877 84.2985 42.1687 83.8785 42.3543C83.4586 42.5398 82.9975 42.6129 82.5408 42.5664C81.7609 42.5664 80.9671 42.5664 80.1733 42.4549C79.8202 42.43 79.4774 42.3252 79.1707 42.1486C78.2376 41.5637 77.3324 40.937 76.3855 40.3382C75.4385 39.7394 74.8536 39.4191 74.0877 38.9456C73.3217 38.4721 72.2494 37.8594 71.3025 37.2745C71.2201 37.2008 71.154 37.1107 71.1084 37.01C71.0628 36.9092 71.0388 36.8001 71.0379 36.6896C70.9998 36.3016 71.0328 35.9098 71.1354 35.5337C71.3848 34.9746 71.4576 34.3528 71.3442 33.7512C71.3442 33.598 71.5671 33.3473 71.5114 33.2359C71.3461 32.9075 71.1246 32.6105 70.8568 32.3586C70.5365 32.0661 70.077 31.9269 69.7845 31.6205C69.725 31.4942 69.6941 31.3563 69.6941 31.2166C69.6941 31.077 69.725 30.9391 69.7845 30.8128C69.9261 30.4901 69.9991 30.1416 69.9991 29.7892C69.9991 29.4369 69.9261 29.0883 69.7845 28.7657C69.4085 27.8744 69.0047 27.011 68.6287 26.1336C68.5033 25.8551 68.4476 25.5348 68.3502 25.2424C68.2301 24.7545 68.0426 24.2858 67.7931 23.8498C67.1523 22.7368 66.767 21.4953 66.6651 20.2151C66.5537 19.6859 66.6651 19.1288 66.5398 18.5857C66.4508 18.1028 66.2961 17.6342 66.0802 17.1931C65.9131 16.845 65.5093 16.8728 65.1472 16.8867C64.423 16.8867 63.7546 16.8867 62.9608 16.8867C62.167 16.8867 61.6657 16.8867 61.0251 16.8867C60.3908 16.8673 59.7572 16.9424 59.1451 17.1096C58.5915 17.2291 58.0215 17.2527 57.46 17.1792C56.7637 17.1792 56.0674 17.2906 55.385 17.402C55.0343 17.5066 54.6902 17.6321 54.3545 17.778C54.0085 17.8848 53.6546 17.964 53.2961 18.0148C52.6695 18.1122 52.0289 18.1819 51.4022 18.2515C51.2493 18.2654 51.0955 18.2654 50.9426 18.2515L48.7145 17.8894C48.3802 18.9757 47.4054 19.0453 46.5977 19.282C45.3583 19.5465 44.0771 19.5465 42.8377 19.282C41.3198 19.0731 39.8018 18.9339 38.2839 18.7807V18.9339C38.627 19.1206 38.9804 19.288 39.3423 19.4352C40.6235 19.8808 41.9186 20.2568 43.1858 20.7164C43.6633 20.9469 44.1281 21.2025 44.5784 21.4823C45.233 21.8166 45.971 22.0533 46.5699 22.4293C47.064 22.7667 47.5298 23.144 47.9625 23.5573C48.0739 23.6548 48.1574 23.8219 48.2828 23.9055C49.0997 24.524 49.7781 25.3067 50.2742 26.2033C50.3879 26.378 50.4388 26.5862 50.4185 26.7938C50.3983 27.0013 50.3081 27.1957 50.1628 27.3452L49.4943 27.0388C49.6197 27.5402 50.0792 27.9997 49.4943 28.5707C49.2525 28.3177 49.0292 28.0478 48.8259 27.763C48.5752 27.3313 48.3802 26.8439 48.1435 26.3704C48.0415 26.2016 47.8839 26.0736 47.6979 26.0083L47.8232 26.3982C48.0042 27.0249 48.2131 27.6516 48.3802 28.2922C48.3802 28.4314 48.2828 28.6125 48.2271 28.7796C48.0599 28.6821 47.8093 28.6264 47.7396 28.4732C47.4194 27.8605 47.1548 27.2059 46.8484 26.5793C46.8034 26.5009 46.7433 26.4322 46.6716 26.3772C46.5999 26.3222 46.518 26.282 46.4306 26.259C46.4306 26.4261 46.542 26.6071 46.5838 26.7742C46.7091 27.3313 46.8345 27.8883 46.9319 28.4593C46.9319 28.5568 46.7648 28.6821 46.6813 28.7796C46.5281 28.6542 46.3192 28.5568 46.2496 28.4036C46.0922 27.8839 45.8967 27.3766 45.6647 26.8856C45.3117 26.333 44.9008 25.8195 44.4392 25.3538C43.9239 24.7967 43.353 24.2954 42.8377 23.7384C42.4763 23.3474 41.9767 23.1126 41.4451 23.0838C40.7942 22.953 40.1523 22.7809 39.5233 22.5686C38.5067 22.3179 37.4622 22.109 36.4596 21.7887C35.1505 21.3709 33.8693 20.8557 32.5742 20.3961C32.3375 20.3125 32.1007 20.2568 31.7526 20.1594L32.0868 20.6329L34.5656 24.0587C34.7169 24.2639 34.9183 24.427 35.1505 24.5321L38.1585 25.7855C38.3754 25.9022 38.5847 26.0324 38.7852 26.1754C40.9159 27.4427 42.963 28.7517 45.1912 29.9354C46.1255 30.5563 47.2565 30.8093 48.3663 30.6457C48.568 30.6122 48.7616 30.5413 48.9373 30.4368C49.4174 30.1453 49.8823 29.8292 50.3299 29.4898C50.8311 29.1007 51.4501 28.8943 52.0846 28.9049C52.5259 28.817 52.9526 28.6669 53.3518 28.4593C53.6304 28.3757 53.9228 27.9997 54.2153 28.4593C54.2876 28.6574 54.2926 28.8739 54.2297 29.0752C54.1668 29.2766 54.0394 29.4516 53.8671 29.5734L52.0846 30.5343C52.2751 30.8562 52.5491 31.1206 52.8776 31.2996C53.2061 31.4785 53.5769 31.5654 53.9507 31.5509C54.5634 31.4673 55.0508 31.3559 55.4686 31.9408C55.4686 32.0383 55.8585 31.9408 56.0535 31.9408L57.2233 31.7597C57.1258 32.08 57.1119 32.3864 56.9726 32.5257C56.6105 32.8878 56.3181 33.3891 55.7193 33.403C55.7193 33.403 55.58 33.5144 55.5522 33.5841C55.4929 33.8137 55.3459 34.0109 55.1428 34.1333C54.9397 34.2557 54.6966 34.2935 54.4659 34.2386C53.9798 34.1653 53.4838 34.2744 53.0733 34.545C52.5616 34.868 52.009 35.1209 51.43 35.297C51.1643 35.3516 50.8884 35.3274 50.6363 35.2273C49.7868 34.8931 48.9512 34.531 48.1017 34.1829C47.9666 34.1032 47.813 34.06 47.6561 34.0575C47.0802 34.0333 46.5177 33.876 46.0128 33.598C43.339 32.6928 40.6374 31.8851 37.9636 30.952C36.718 30.4825 35.4999 29.9432 34.315 29.3366C33.4222 28.9289 32.569 28.4394 31.7665 27.8744C30.6524 27.0667 29.6776 26.0919 28.5914 25.2702C27.7419 24.6157 26.7949 24.1144 25.9036 23.5155C25.5455 23.2889 25.2297 23.0014 24.9706 22.6661C24.2022 21.7941 23.3109 21.0388 22.3246 20.424C21.6544 19.9851 20.946 19.6076 20.2079 19.2959C19.5752 18.9746 19.059 18.4633 18.7317 17.8337C18.6064 17.6109 18.4532 17.402 18.2583 17.0678L17.0467 19.853C16.5175 19.7416 16.3086 20.0897 16.0579 20.4936C15.8073 20.8974 15.6959 21.3013 15.1388 21.2456C15.1388 21.2456 15.0274 21.2456 14.9856 21.3709C14.7489 21.6773 14.5261 21.9558 14.0804 21.6634C13.9969 21.6634 13.7601 21.6634 13.6348 21.8166C13.2588 22.1229 12.7853 22.485 12.3815 22.2483C11.9776 22.0115 11.4345 22.2483 10.9889 22.109C10.5166 21.9784 10.0727 21.7612 9.67982 21.4684C9.34909 21.1723 9.0418 20.8511 8.76071 20.5075C8.59127 20.3973 8.40884 20.3084 8.21759 20.2429C7.98084 19.9087 7.6327 19.4631 7.34025 18.9896C6.94331 18.3837 6.58066 17.756 6.25402 17.1096C6.2023 16.9885 6.17564 16.8582 6.17564 16.7266C6.17564 16.595 6.2023 16.4647 6.25402 16.3436C6.4072 16.0512 6.25402 15.898 6.12868 15.703C6.09354 15.6643 6.06842 15.6175 6.05553 15.5668C6.04264 15.5161 6.04236 15.463 6.05473 15.4122C6.06709 15.3613 6.09173 15.3143 6.12647 15.2752C6.16121 15.2361 6.205 15.2061 6.25402 15.1878C6.40906 15.0884 6.53421 14.9488 6.6161 14.7839C7.08958 13.9484 7.10351 12.9318 7.75803 12.1798C7.86944 12.0544 7.92514 11.8455 8.0644 11.762C8.36321 11.5458 8.59404 11.2488 8.72973 10.9058C8.86543 10.5629 8.90033 10.1883 8.83034 9.82625V9.40847C8.83034 8.94891 9.13671 8.74002 9.55449 8.92106C9.61847 8.95901 9.68974 8.98305 9.76364 8.9916C9.83754 9.00015 9.91241 8.99302 9.98338 8.97068C10.0543 8.94835 10.1198 8.9113 10.1755 8.86195C10.2311 8.81261 10.2758 8.75208 10.3065 8.68431C10.4318 8.5172 10.6964 8.4615 11.0306 8.26653C11.1003 7.73734 11.6434 8.04372 12.0751 8.04372C12.1152 7.96478 12.1434 7.88029 12.1587 7.79305C12.1721 7.63758 12.2256 7.48823 12.3138 7.35951C12.402 7.23079 12.522 7.12707 12.6622 7.0584C12.8023 6.98974 12.9578 6.95846 13.1136 6.96762C13.2694 6.97678 13.4201 7.02605 13.5513 7.11067C14.3311 7.58415 15.0553 8.09942 15.8073 8.58683C16.0022 8.71217 16.239 8.90713 16.4479 8.8932C17.5062 8.83334 18.563 9.03418 19.5255 9.47809C19.7995 9.59692 20.1044 9.62452 20.3953 9.55682C20.6862 9.48912 20.9476 9.3297 21.1409 9.10209C22.4595 7.77277 24.0649 6.76288 25.834 6.14977C26.943 5.67035 28.0773 5.25194 29.232 4.89643C30.1018 4.68551 31.0005 4.61964 31.8918 4.70146C32.6573 4.71907 33.4226 4.65842 34.1757 4.52043C35.8728 4.34848 37.5846 4.38589 39.2726 4.63183C39.6065 4.65264 39.9414 4.65264 40.2753 4.63183C42.3781 4.63183 44.4531 4.63183 46.6116 4.63183C48.3385 4.63183 50.0653 4.93821 51.7921 5.10532C51.9441 5.13271 52.0997 5.13271 52.2517 5.10532C52.3909 5.10532 52.5024 4.96606 52.6416 4.93821C53.7835 4.74324 54.633 3.74057 55.8585 3.78235C55.8585 3.78235 56.0117 3.65701 56.0953 3.60131C56.3273 3.39436 56.5905 3.22518 56.8751 3.09997C57.9474 2.80752 59.0058 2.54293 60.092 2.32011C62.1974 1.84874 64.2607 1.206 66.2613 0.398322C66.9017 0.0966446 67.6083 -0.0373439 68.3147 0.00893872C69.0211 0.0552214 69.7042 0.280255 70.2998 0.662914C70.4368 0.760697 70.5588 0.877987 70.6619 1.01106L73.4471 4.93821C73.5164 5.03727 73.5726 5.14494 73.6142 5.25851C73.7629 5.84877 73.9585 6.42621 74.1991 6.98533C74.8954 8.29438 75.6892 9.56165 76.4272 10.8568C76.6222 11.2049 76.7197 11.6088 76.9425 11.943C77.105 12.189 77.3312 12.3864 77.597 12.514C77.9936 12.6641 78.3372 12.9278 78.5849 13.2721C78.8326 13.6163 78.9733 14.0259 78.9896 14.4497C79.1289 14.7978 79.2124 15.1878 79.2542 15.5359ZM66.5955 8.43364V8.67039C66.9295 8.74965 67.2695 8.80089 67.6121 8.82358C67.7513 8.82358 67.9045 8.64254 68.0577 8.54505C67.8906 8.37794 67.7096 8.05764 67.5703 8.07157C67.2308 8.14868 66.903 8.27042 66.5955 8.43364Z" fill="white" fill-opacity="0.05"/>
<path d="M0 10.7479L8.0644 11.762L6.62567 14.0657L0 10.7479Z" fill="#ffb6c1" fill-opacity="0.05"/>
</svg>
