<svg width="92" height="43" viewBox="0 0 92 43" fill="none" xmlns="http://www.w3.org/2000/svg">
<path d="M79.2542 15.536C79.4769 15.5941 79.6919 15.6782 79.8948 15.7867C80.9934 16.5205 81.9083 17.4973 82.5686 18.6415C82.7914 19.0872 83.0978 19.5606 83.7384 19.5467C83.8784 19.5605 84.0103 19.6192 84.1144 19.7138C84.5943 20.1651 85.1114 20.575 85.6602 20.9393C86.83 21.566 87.763 22.7636 89.3367 22.513C89.9156 22.4571 90.4985 22.4571 91.0774 22.513C91.3264 22.564 91.5659 22.6533 91.7876 22.7775C91.6762 23.0421 91.6484 23.4042 91.4534 23.5435C90.6207 24.2527 89.6176 24.7326 88.5429 24.9361C87.6655 25.0475 86.7882 25.2982 85.9109 25.3817C85.0335 25.4653 84.3651 25.3817 83.5991 25.3817C82.1091 25.4931 80.619 25.6463 79.1428 25.7856C79.0378 25.7972 78.9314 25.7869 78.8305 25.7553C78.7296 25.7238 78.6364 25.6718 78.5566 25.6024C78.4768 25.5331 78.4122 25.448 78.3669 25.3525C78.3216 25.257 78.2965 25.1531 78.2933 25.0475C78.2933 24.2816 78.2933 23.5296 78.1819 22.7775C78.1982 22.2862 78.0673 21.8013 77.8059 21.3849C77.6945 21.2596 77.8059 20.9811 77.8059 20.7026C77.4578 20.2291 76.4133 20.2987 76.5804 19.1429C76.288 19.0036 75.9538 18.8504 75.6195 18.6694C75.2853 18.4883 74.7422 18.4187 74.7422 17.6667C74.7609 17.2313 74.6342 16.802 74.3821 16.4465C74.13 16.091 73.7667 15.8295 73.3496 15.7031C73.2173 16.5101 73.2173 17.3332 73.3496 18.1402C73.5446 18.8643 73.4471 19.672 73.5863 20.4101C73.8231 21.6774 74.1434 22.9168 74.4358 24.1562C74.5751 24.7272 74.77 25.2703 74.8815 25.8413C74.9929 26.4122 75.0903 27.2339 75.2018 27.972C75.2076 28.1432 75.2659 28.3085 75.3689 28.4454C76.1043 29.2374 76.5381 30.2627 76.5944 31.3421C77.0412 32.2053 77.2931 33.156 77.3324 34.1273C77.3324 34.2387 77.4717 34.3779 77.5831 34.4615L79.7556 35.868C79.9259 36.0031 80.0401 36.1967 80.0759 36.4111C80.0928 36.7138 80.208 37.0027 80.4041 37.2339C80.6001 37.4652 80.8663 37.6261 81.1621 37.6923C81.6599 37.9105 82.1279 38.1913 82.5547 38.5279C83.3624 39.1128 84.1701 39.7255 84.9361 40.3522C85.312 40.6725 85.2424 41.1042 84.9361 41.5081C84.6629 41.8771 84.2985 42.1688 83.8785 42.3544C83.4586 42.5399 82.9975 42.613 82.5408 42.5664C81.7609 42.5664 80.9671 42.5664 80.1733 42.455C79.8202 42.4301 79.4774 42.3253 79.1707 42.1487C78.2376 41.5638 77.3324 40.9371 76.3855 40.3383C75.4385 39.7395 74.8536 39.4192 74.0877 38.9457C73.3217 38.4722 72.2494 37.8594 71.3025 37.2745C71.2201 37.2009 71.154 37.1108 71.1084 37.01C71.0628 36.9093 71.0388 36.8002 71.0379 36.6897C70.9998 36.3017 71.0328 35.9099 71.1354 35.5338C71.3848 34.9747 71.4576 34.3529 71.3442 33.7513C71.3442 33.5981 71.5671 33.3474 71.5114 33.236C71.3461 32.9076 71.1246 32.6106 70.8568 32.3587C70.5365 32.0662 70.077 31.927 69.7845 31.6206C69.725 31.4943 69.6941 31.3564 69.6941 31.2167C69.6941 31.0771 69.725 30.9392 69.7845 30.8129C69.9261 30.4902 69.9991 30.1417 69.9991 29.7893C69.9991 29.437 69.9261 29.0884 69.7845 28.7657C69.4085 27.8745 69.0047 27.0111 68.6287 26.1337C68.5033 25.8552 68.4476 25.5349 68.3502 25.2425C68.2301 24.7546 68.0426 24.2859 67.7931 23.8499C67.1523 22.7369 66.767 21.4954 66.6651 20.2152C66.5537 19.686 66.6651 19.1289 66.5398 18.5858C66.4508 18.1028 66.2961 17.6343 66.0802 17.1932C65.9131 16.8451 65.5093 16.8729 65.1472 16.8868C64.423 16.8868 63.7546 16.8868 62.9608 16.8868C62.167 16.8868 61.6657 16.8868 61.0251 16.8868C60.3908 16.8674 59.7572 16.9425 59.1451 17.1097C58.5915 17.2292 58.0215 17.2528 57.46 17.1793C56.7637 17.1793 56.0674 17.2907 55.385 17.4021C55.0343 17.5066 54.6902 17.6322 54.3545 17.7781C54.0085 17.8849 53.6546 17.9641 53.2961 18.0148C52.6695 18.1123 52.0289 18.182 51.4022 18.2516C51.2493 18.2655 51.0955 18.2655 50.9426 18.2516L48.7145 17.8895C48.3802 18.9757 47.4054 19.0454 46.5977 19.2821C45.3583 19.5465 44.0771 19.5465 42.8377 19.2821C41.3198 19.0732 39.8018 18.934 38.2839 18.7808V18.934C38.627 19.1207 38.9804 19.2881 39.3423 19.4353C40.6235 19.8809 41.9186 20.2569 43.1858 20.7165C43.6633 20.9469 44.1281 21.2026 44.5784 21.4824C45.233 21.8167 45.9711 22.0534 46.5699 22.4294C47.064 22.7668 47.5298 23.1441 47.9625 23.5574C48.0739 23.6549 48.1574 23.822 48.2828 23.9056C49.0997 24.5241 49.7781 25.3068 50.2742 26.2034C50.3879 26.3781 50.4388 26.5863 50.4185 26.7938C50.3983 27.0013 50.3081 27.1958 50.1628 27.3453L49.4943 27.0389C49.6197 27.5403 50.0792 27.9998 49.4943 28.5708C49.2525 28.3178 49.0292 28.0479 48.8259 27.7631C48.5752 27.3314 48.3802 26.844 48.1435 26.3705C48.0415 26.2017 47.8839 26.0737 47.6979 26.0084L47.8232 26.3983C48.0042 27.025 48.2131 27.6517 48.3802 28.2923C48.3802 28.4315 48.2828 28.6126 48.2271 28.7797C48.0599 28.6822 47.8093 28.6265 47.7397 28.4733C47.4193 27.8606 47.1548 27.206 46.8484 26.5794C46.8034 26.501 46.7433 26.4323 46.6716 26.3773C46.5999 26.3223 46.518 26.2821 46.4306 26.2591C46.4306 26.4262 46.542 26.6072 46.5838 26.7743C46.7091 27.3314 46.8345 27.8884 46.9319 28.4594C46.9319 28.5569 46.7648 28.6822 46.6813 28.7797C46.5281 28.6543 46.3192 28.5569 46.2496 28.4037C46.0922 27.884 45.8967 27.3766 45.6647 26.8857C45.3116 26.3331 44.9008 25.8196 44.4392 25.3539C43.9239 24.7968 43.353 24.2955 42.8377 23.7384C42.4763 23.3475 41.9767 23.1127 41.4451 23.0839C40.7942 22.9531 40.1523 22.781 39.5233 22.5687C38.5067 22.318 37.4622 22.1091 36.4596 21.7888C35.1505 21.371 33.8693 20.8558 32.5742 20.3962C32.3375 20.3126 32.1007 20.2569 31.7526 20.1595L32.0868 20.6329L34.5656 24.0587C34.7169 24.264 34.9183 24.427 35.1505 24.5322L38.1586 25.7856C38.3754 25.9023 38.5847 26.0325 38.7852 26.1755C40.9159 27.4428 42.963 28.7518 45.1912 29.9355C46.1255 30.5564 47.2565 30.8094 48.3663 30.6458C48.568 30.6122 48.7616 30.5414 48.9373 30.4369C49.4174 30.1453 49.8823 29.8293 50.3299 29.4899C50.8311 29.1007 51.4501 28.8944 52.0846 28.905C52.5259 28.8171 52.9526 28.667 53.3518 28.4594C53.6304 28.3758 53.9228 27.9998 54.2153 28.4594C54.2876 28.6575 54.2926 28.874 54.2297 29.0753C54.1668 29.2767 54.0394 29.4517 53.8671 29.5735L52.0846 30.5343C52.2751 30.8563 52.5491 31.1207 52.8776 31.2997C53.2061 31.4786 53.5769 31.5654 53.9507 31.551C54.5634 31.4674 55.0508 31.356 55.4686 31.9409C55.4686 32.0384 55.8585 31.9409 56.0535 31.9409L57.2233 31.7598C57.1258 32.0801 57.1119 32.3865 56.9726 32.5258C56.6105 32.8878 56.3181 33.3892 55.7193 33.4031C55.7193 33.4031 55.58 33.5145 55.5522 33.5842C55.4929 33.8138 55.3459 34.011 55.1428 34.1334C54.9397 34.2558 54.6966 34.2936 54.4659 34.2387C53.9798 34.1654 53.4838 34.2745 53.0733 34.545C52.5616 34.868 52.009 35.121 51.43 35.2971C51.1643 35.3517 50.8884 35.3275 50.6363 35.2274C49.7868 34.8932 48.9512 34.5311 48.1017 34.183C47.9666 34.1033 47.813 34.0601 47.6561 34.0576C47.0802 34.0334 46.5177 33.8761 46.0128 33.5981C43.339 32.6929 40.6374 31.8852 37.9636 30.9521C36.718 30.4826 35.4999 29.9433 34.315 29.3367C33.4222 28.929 32.569 28.4395 31.7665 27.8745C30.6524 27.0668 29.6776 26.0919 28.5914 25.2703C27.7419 24.6158 26.7949 24.1145 25.9036 23.5156C25.5455 23.289 25.2297 23.0015 24.9706 22.6661C24.2022 21.7942 23.3109 21.0389 22.3246 20.4241C21.6544 19.9852 20.946 19.6077 20.2079 19.296C19.5752 18.9747 19.059 18.4634 18.7317 17.8338C18.6064 17.611 18.4532 17.4021 18.2583 17.0679L17.0467 19.8531C16.5175 19.7417 16.3086 20.0898 16.0579 20.4937C15.8073 20.8975 15.6959 21.3014 15.1388 21.2457C15.1388 21.2457 15.0274 21.2457 14.9856 21.371C14.7489 21.6774 14.5261 21.9559 14.0804 21.6635C13.9969 21.6635 13.7601 21.6635 13.6348 21.8167C13.2588 22.123 12.7853 22.4851 12.3815 22.2484C11.9776 22.0116 11.4345 22.2484 10.9889 22.1091C10.5166 21.9785 10.0727 21.7613 9.67982 21.4685C9.34909 21.1724 9.0418 20.8512 8.76071 20.5076C8.59127 20.3974 8.40884 20.3085 8.21759 20.243C7.98084 19.9088 7.6327 19.4632 7.34025 18.9897C6.94331 18.3838 6.58066 17.7561 6.25402 17.1097C6.2023 16.9886 6.17564 16.8583 6.17564 16.7267C6.17564 16.5951 6.2023 16.4648 6.25402 16.3437C6.4072 16.0513 6.25402 15.8981 6.12868 15.7031C6.09354 15.6644 6.06842 15.6176 6.05553 15.5669C6.04264 15.5162 6.04236 15.4631 6.05473 15.4123C6.06709 15.3614 6.09173 15.3144 6.12647 15.2753C6.16121 15.2362 6.205 15.2061 6.25402 15.1879C6.40906 15.0885 6.53421 14.9489 6.6161 14.784C7.08958 13.9484 7.10351 12.9318 7.75803 12.1798C7.86944 12.0545 7.92514 11.8456 8.0644 11.7621C8.36321 11.5459 8.59404 11.2489 8.72973 10.9059C8.86543 10.563 8.90033 10.1884 8.83034 9.82634V9.40856C8.83034 8.949 9.13671 8.74011 9.55449 8.92115C9.61847 8.95911 9.68974 8.98314 9.76364 8.99169C9.83754 9.00024 9.91241 8.99312 9.98338 8.97078C10.0543 8.94844 10.1198 8.91139 10.1755 8.86204C10.2311 8.8127 10.2758 8.75217 10.3065 8.6844C10.4318 8.51729 10.6964 8.46159 11.0306 8.26662C11.1003 7.73743 11.6434 8.04381 12.0751 8.04381C12.1152 7.96487 12.1434 7.88038 12.1587 7.79314C12.1721 7.63767 12.2256 7.48832 12.3138 7.3596C12.402 7.23088 12.522 7.12716 12.6622 7.0585C12.8023 6.98983 12.9578 6.95855 13.1136 6.96771C13.2694 6.97687 13.4201 7.02615 13.5513 7.11076C14.3311 7.58424 15.0553 8.09951 15.8073 8.58692C16.0022 8.71226 16.239 8.90722 16.4479 8.8933C17.5062 8.83343 18.563 9.03427 19.5255 9.47819C19.7995 9.59701 20.1044 9.62462 20.3953 9.55691C20.6862 9.48921 20.9476 9.32979 21.1409 9.10219C22.4595 7.77286 24.0649 6.76297 25.834 6.14986C26.943 5.67044 28.0773 5.25203 29.232 4.89652C30.1018 4.68561 31.0005 4.61973 31.8918 4.70155C32.6573 4.71917 33.4226 4.65851 34.1757 4.52052C35.8728 4.34857 37.5846 4.38599 39.2726 4.63193C39.6065 4.65273 39.9414 4.65273 40.2753 4.63193C42.3781 4.63193 44.4531 4.63193 46.6116 4.63193C48.3385 4.63193 50.0653 4.9383 51.7921 5.10541C51.9441 5.13281 52.0997 5.13281 52.2517 5.10541C52.3909 5.10541 52.5024 4.96615 52.6416 4.9383C53.7835 4.74334 54.633 3.74066 55.8585 3.78244C55.8585 3.78244 56.0117 3.65711 56.0953 3.6014C56.3273 3.39445 56.5905 3.22527 56.8751 3.10006C57.9474 2.80762 59.0058 2.54302 60.092 2.3202C62.1974 1.84883 64.2607 1.20609 66.2613 0.398413C66.9017 0.0967362 67.6083 -0.0372524 68.3147 0.00903028C69.0211 0.0553129 69.7042 0.280347 70.2998 0.663006C70.4368 0.760789 70.5588 0.878079 70.6619 1.01116L73.4471 4.9383C73.5164 5.03736 73.5726 5.14503 73.6142 5.2586C73.7629 5.84886 73.9585 6.4263 74.1991 6.98542C74.8954 8.29447 75.6892 9.56174 76.4272 10.8569C76.6222 11.205 76.7197 11.6089 76.9425 11.9431C77.105 12.1891 77.3312 12.3865 77.597 12.5141C77.9936 12.6642 78.3372 12.9279 78.5849 13.2722C78.8326 13.6164 78.9733 14.026 78.9896 14.4498C79.1289 14.7979 79.2124 15.1879 79.2542 15.536ZM66.5955 8.43374V8.67048C66.9295 8.74974 67.2695 8.80098 67.6121 8.82367C67.7513 8.82367 67.9045 8.64263 68.0577 8.54515C67.8906 8.37803 67.7096 8.05774 67.5703 8.07166C67.2308 8.14877 66.903 8.27052 66.5955 8.43374Z" fill="white"/>
<path d="M0 10.748L8.0644 11.7621L6.62567 14.0658L0 10.748Z" fill="#ffb6c1"/>
</svg>
